<?xml version="1.0" encoding="UTF-8" standalone="no"?>
<!-- Created with Inkscape (http://www.inkscape.org/) -->

<svg
   width="19.119587mm"
   height="19.200657mm"
   viewBox="0 0 22.943505 23.040788"
   version="1.1"
   id="svg8"
   inkscape:version="1.3 (0e150ed6c4, 2023-07-21)"
   sodipodi:docname="spumalogo.svg"
   inkscape:export-filename="C:\spuma\Marketing\logo04.png"
   inkscape:export-xdpi="49.810001"
   inkscape:export-ydpi="49.810001"
   xmlns:inkscape="http://www.inkscape.org/namespaces/inkscape"
   xmlns:sodipodi="http://sodipodi.sourceforge.net/DTD/sodipodi-0.dtd"
   xmlns="http://www.w3.org/2000/svg"
   xmlns:svg="http://www.w3.org/2000/svg"
   xmlns:rdf="http://www.w3.org/1999/02/22-rdf-syntax-ns#"
   xmlns:cc="http://creativecommons.org/ns#"
   xmlns:dc="http://purl.org/dc/elements/1.1/">
  <defs
     id="defs2" />
  <sodipodi:namedview
     id="base"
     pagecolor="#ffffff"
     bordercolor="#666666"
     borderopacity="1.0"
     inkscape:pageopacity="0.0"
     inkscape:pageshadow="2"
     inkscape:zoom="3.959798"
     inkscape:cx="169.20055"
     inkscape:cy="-30.935922"
     inkscape:document-units="mm"
     inkscape:current-layer="layer1"
     showgrid="false"
     inkscape:window-width="2560"
     inkscape:window-height="1369"
     inkscape:window-x="2552"
     inkscape:window-y="-8"
     inkscape:window-maximized="1"
     showborder="true"
     fit-margin-top="0"
     fit-margin-left="0"
     fit-margin-right="0"
     fit-margin-bottom="0"
     scale-x="1.2"
     inkscape:showpageshadow="2"
     inkscape:pagecheckerboard="0"
     inkscape:deskcolor="#d1d1d1"
     inkscape:clip-to-page="false" />
  <metadata
     id="metadata5">
    <rdf:RDF>
      <cc:Work
         rdf:about="">
        <dc:format>image/svg+xml</dc:format>
        <dc:type
           rdf:resource="http://purl.org/dc/dcmitype/StillImage" />
      </cc:Work>
    </rdf:RDF>
  </metadata>
  <g
     inkscape:label="Layer 1"
     inkscape:groupmode="layer"
     id="layer1"
     transform="matrix(0.9962384,0,0,1,-22.741207,-78.594492)">
    <rect
       style="opacity:1;fill:none;fill-opacity:0;stroke:none;stroke-width:0.0770717;stroke-linejoin:miter;stroke-miterlimit:4;stroke-dasharray:none;stroke-opacity:1"
       id="rect4492"
       width="114.93319"
       height="26.750696"
       x="20.608315"
       y="76.409737"
       inkscape:export-filename="C:\spuma\Marketing\logo04.png"
       inkscape:export-xdpi="49.810001"
       inkscape:export-ydpi="49.810001" />
    <path
       inkscape:connector-curvature="0"
       id="path4551"
       d="m 33.448504,101.44838 c -0.424943,-0.17468 -0.802203,-0.53299 -5.368616,-5.098992 -5.476927,-5.476433 -5.250358,-5.206626 -5.251791,-6.254021 -0.0012,-0.778442 0.19019,-1.184455 0.891352,-1.89223 0.302011,-0.304859 0.601679,-0.554289 0.665929,-0.554289 0.06425,0 2.318487,2.201867 5.009412,4.893039 2.690928,2.691171 4.928716,4.893039 4.972866,4.893039 0.119268,0 0.646486,-0.562491 0.646486,-0.689737 0,-0.06044 -1.890463,-2.002824 -4.201031,-4.316412 -4.75012,-4.756336 -4.629379,-4.607738 -4.629379,-5.697374 0,-0.475548 0.03716,-0.649079 0.217742,-1.016841 0.231232,-0.470899 1.085221,-1.429679 1.273426,-1.429679 0.149805,0 12.461641,12.313229 12.461641,12.463049 0,0.06438 -1.006323,1.118488 -2.236271,2.342463 -2.053805,2.043825 -2.272377,2.238625 -2.678748,2.387445 -0.598943,0.21934 -1.191699,0.20949 -1.773018,-0.0295 z"
       style="fill:#4e4e4e;fill-opacity:1;stroke:none;stroke-width:0.0764538;stroke-opacity:1"
       sodipodi:nodetypes="cscssssssscsssccc"
       inkscape:export-filename="C:\spuma\Marketing\logo04.png"
       inkscape:export-xdpi="49.810001"
       inkscape:export-ydpi="49.810001" />
    <path
       inkscape:connector-curvature="0"
       id="path4551-7"
       d="m 34.764542,89.770137 c -4.122489,-4.096014 -6.174387,-6.1861 -6.173639,-6.288522 0.0014,-0.216256 4.214927,-4.405155 4.647016,-4.620054 0.718037,-0.357116 1.553695,-0.35603 2.272484,0.0029 0.462898,0.231183 9.899245,9.688765 10.131441,10.154242 0.110842,0.222202 0.181524,0.536126 0.206571,0.917445 0.05486,0.835185 -0.137845,1.304919 -0.837473,2.041447 -0.294787,0.310334 -0.591909,0.564242 -0.660271,0.564242 -0.06837,0 -2.342681,-2.218581 -5.054035,-4.930183 l -4.929742,-4.930182 -0.402893,0.39789 -0.402899,0.397891 4.190548,4.207364 c 3.822122,3.83746 4.213514,4.253744 4.451792,4.734904 0.507846,1.025518 0.303138,1.996441 -0.631604,2.995682 -0.252408,0.269829 -0.497989,0.490464 -0.54573,0.490299 -0.04774,-1.53e-4 -2.865448,-2.761101 -6.261566,-6.135415 z"
       style="fill:#eb7f37;fill-opacity:1;stroke:none;stroke-width:0.0764538;stroke-opacity:1"
       sodipodi:nodetypes="scsssscsscccscccs"
       inkscape:export-filename="C:\spuma\Marketing\logo04.png"
       inkscape:export-xdpi="49.810001"
       inkscape:export-ydpi="49.810001" />
  </g>
</svg>
